<?xml version="1.0" encoding="UTF-8"?>
<svg version="1.1" xmlns="http://www.w3.org/2000/svg" width="512" height="512">
<path d="M0 0 C168.96 0 337.92 0 512 0 C512 168.96 512 337.92 512 512 C343.04 512 174.08 512 0 512 C0 343.04 0 174.08 0 0 Z M93 214 C92.30777344 214.64066406 91.61554688 215.28132813 90.90234375 215.94140625 C82.66175093 224.30902169 76.83503288 236.65986849 74 248 C74.38672511 250.17525683 74.38672511 250.17525683 75 252 C75.1959375 251.33355469 75.391875 250.66710937 75.59375 249.98046875 C80.30592094 235.45804539 89.41394023 225.58482346 102.8125 218.75 C109.06468544 215.66542342 115.1710768 213.51753849 122 212 C122 207.38 122 202.76 122 198 C112.36475079 198 99.57678999 207.71283012 93 214 Z M266 213 C265.8890952 215.37149977 265.84261852 217.71415633 265.83886719 220.08666992 C265.83390228 220.82820312 265.82893738 221.56973633 265.82382202 222.33374023 C265.80915832 224.7993257 265.80238981 227.26484674 265.796875 229.73046875 C265.79112493 231.44102481 265.78536719 233.15158084 265.77960205 234.86213684 C265.76907868 238.45602723 265.76324546 242.04989518 265.75976562 245.64379883 C265.75429233 250.24278417 265.73029506 254.84147172 265.70179367 259.44036388 C265.68313767 262.97747146 265.67796001 266.51450793 265.67642975 270.05166054 C265.673407 271.74648979 265.66539121 273.4413179 265.65224457 275.13609886 C265.63512953 277.51307893 265.63707789 279.8893402 265.64355469 282.26635742 C265.6343399 282.96322159 265.62512512 283.66008575 265.6156311 284.37806702 C265.65476961 288.97907123 266.60201142 292.08514245 269 296 C273.19860335 299.98329036 275.8504549 300.8848458 281.5 301.1875 C285.2217914 301.22137606 285.2217914 301.22137606 289 299 C289 295.04 289 291.08 289 287 C287.35 286.34 285.7 285.68 284 285 C283.99120064 283.7354599 283.99120064 283.7354599 283.98222351 282.44537354 C283.92431415 274.49971447 283.85224767 266.55433703 283.76428509 258.60895157 C283.71956188 254.52415185 283.68031024 250.43945231 283.65356445 246.35449219 C283.62755064 242.41208213 283.58716239 238.47005719 283.53681374 234.52788544 C283.52013191 233.02405336 283.5086258 231.52015464 283.50238609 230.01624298 C283.49275888 227.90918122 283.46471877 225.80310761 283.43237305 223.69628906 C283.42126999 222.49715881 283.41016693 221.29802856 283.39872742 220.06256104 C282.96499483 216.73113094 282.36798401 215.34446106 280 213 C277.02119115 212.00706372 274.98398802 211.86593589 271.875 211.875 C270.54082031 211.87113281 270.54082031 211.87113281 269.1796875 211.8671875 C267.02208912 211.75698015 267.02208912 211.75698015 266 213 Z M89.515625 232.27734375 C79.48862325 243.67401326 74.59646904 255.36807861 74.625 270.5 C74.62588623 271.36149658 74.62677246 272.22299316 74.62768555 273.1105957 C74.84056486 284.87947164 77.99409388 295.98375817 82 307 C82.33 307 82.66 307 83 307 C83.02578125 305.69546875 83.0515625 304.3909375 83.078125 303.046875 C83.57591315 285.60925579 87.3569411 269.00428915 100 256 C100.99 255.505 100.99 255.505 102 255 C100.24956916 259.53052688 98.11827509 263.48969009 95.5625 267.625 C90.13496833 276.80475758 87.47989959 286.37022414 87 297 C100.02380747 296.71798842 110.70569941 292.18134902 120 283 C126.08089816 275.95708474 132 266.50641803 132 257 C124.08 257 116.16 257 108 257 C108.061875 254.628125 108.12375 252.25625 108.1875 249.8125 C108.19418701 249.07491455 108.20087402 248.3373291 108.20776367 247.57739258 C108.37294312 244.07265396 108.99681207 242.00491255 110.90625 239.0625 C115.31371774 236.12418817 119.12037081 236.22052414 124.3125 236.1875 C125.70952148 236.14979492 125.70952148 236.14979492 127.13476562 236.11132812 C129.42272595 236.05266248 131.71140749 236.02341816 134 236 C134 230.06 134 224.12 134 218 C117.95419924 218 101.66184235 220.77524399 89.515625 232.27734375 Z M146.35952759 224.68093872 C144.50780485 227.83957893 144.61892838 230.18027745 144.61181641 233.83227539 C144.60655945 234.51079056 144.60130249 235.18930573 144.59588623 235.88838196 C144.58271156 238.12504275 144.59141374 240.36098857 144.6015625 242.59765625 C144.59954126 244.15417111 144.5966294 245.71068504 144.59286499 247.26719666 C144.58844529 250.52628614 144.59486197 253.7851287 144.60888672 257.04418945 C144.62599286 261.22307733 144.61612652 265.40138778 144.59816933 269.58025455 C144.58733391 272.79300801 144.59077641 276.00562432 144.5985527 279.21838188 C144.60055466 280.75937404 144.59809559 282.30037863 144.59111404 283.84135628 C144.58350168 285.99361342 144.59509865 288.14493199 144.61181641 290.29711914 C144.61420319 291.52193497 144.61658997 292.74675079 144.61904907 294.00868225 C144.75620502 296.97796427 144.75620502 296.97796427 146.3621521 298.89842224 C148.75913478 300.51057609 150.6446784 300.32675596 153.5 300.25 C154.93859375 300.22679687 154.93859375 300.22679687 156.40625 300.203125 C159.11407394 300.09597246 159.11407394 300.09597246 162 299 C162 289.1 162 279.2 162 269 C174.875 269.1875 174.875 269.1875 178.93310547 269.27026367 C179.98385254 269.27775635 181.03459961 269.28524902 182.1171875 269.29296875 C183.19597168 269.3086792 184.27475586 269.32438965 185.38623047 269.34057617 C186.68004639 269.17199097 186.68004639 269.17199097 188 269 C190.16721782 265.74917327 190.27221018 264.70767847 190.25 260.9375 C190.25515625 260.05964844 190.2603125 259.18179688 190.265625 258.27734375 C190.21559352 255.80197672 190.21559352 255.80197672 188 254 C185.28065665 253.72155068 185.28065665 253.72155068 182.1171875 253.8046875 C180.36728516 253.81435547 180.36728516 253.81435547 178.58203125 253.82421875 C177.35871094 253.84097656 176.13539063 253.85773438 174.875 253.875 C173.02841797 253.88853516 173.02841797 253.88853516 171.14453125 253.90234375 C168.09627194 253.92597367 165.04811211 253.96184561 162 254 C162 248.06 162 242.12 162 236 C164.14242187 236.02320313 166.28484375 236.04640625 168.4921875 236.0703125 C170.56395882 236.08590373 172.63572363 236.09805145 174.70751953 236.10986328 C176.14895547 236.11992963 177.59037095 236.1335838 179.03173828 236.15087891 C181.10193934 236.17510012 183.17187076 236.18647641 185.2421875 236.1953125 C186.4885498 236.20578613 187.73491211 236.21625977 189.01904297 236.22705078 C192.11771631 236.31652492 192.11771631 236.31652492 194 234 C194.31991706 231.17129751 194.31991706 231.17129751 194.25 228 C194.25515625 226.9275 194.2603125 225.855 194.265625 224.75 C194.28027649 221.85637822 194.28027649 221.85637822 192 220 C189.20106763 219.78764507 186.50370446 219.69603635 183.703125 219.69921875 C182.46354034 219.69279106 182.46354034 219.69279106 181.19891357 219.68623352 C179.44707149 219.68048379 177.69520554 219.67999468 175.94335938 219.68432617 C173.27431871 219.68747134 170.60640231 219.66408764 167.9375 219.63867188 C166.23437639 219.63639733 164.53124982 219.63569611 162.828125 219.63671875 C161.63718231 219.62290413 161.63718231 219.62290413 160.42218018 219.60881042 C154.81472302 219.65514097 150.45558241 220.48384458 146.35952759 224.68093872 Z M357 248 C350.59882027 256.79414411 350.82829145 267.58853258 352 278 C353.53040452 285.29192743 357.40985604 291.11003569 363 296 C371.46532555 301.45894825 380.16593881 301.7171693 390 301 C398.62790037 299.00097866 404.39286829 295.75164865 409.1875 288.25 C414.72743218 278.46610949 415.72978675 267.65055681 412.875 256.6875 C409.95298131 248.37927174 405.18071244 243.39773052 397.50390625 239.1875 C382.90417846 232.26344813 367.50259909 235.8434483 357 248 Z M201.69140625 246.84765625 C195.02078312 255.33613973 194.17724304 264.4548051 195 275 C196.766767 284.02565544 199.44154618 291.2485347 207.2109375 296.4921875 C216.17318317 301.76234525 226.83048798 302.65741691 236.95703125 300.31640625 C245.34818494 297.21000373 250.94436893 292.31998108 255 284.35546875 C259.28520536 274.26180144 259.06575117 264.10722881 255 254 C251.48143395 246.74376305 246.6342518 242.01902878 239.625 238.125 C226.19415379 233.74423571 211.25231195 236.47552219 201.69140625 246.84765625 Z M291 238 C289.60096121 240.21569564 289.60096121 240.21569564 291.16821289 243.64501953 C291.76183087 245.22725625 292.36398267 246.8063063 292.97265625 248.3828125 C293.29278183 249.22987762 293.61290741 250.07694275 293.94273376 250.94967651 C294.97550762 253.67755967 296.01878667 256.40128603 297.0625 259.125 C297.73963841 260.90728397 298.41607854 262.6898334 299.09179688 264.47265625 C299.42376068 265.34710388 299.75572449 266.22155151 300.0977478 267.12249756 C300.76390951 268.87820419 301.42913312 270.63426704 302.09341431 272.39068604 C303.64640098 276.48686095 305.22139071 280.56945105 306.87060547 284.62792969 C307.15665146 285.34689423 307.44269745 286.06585876 307.7374115 286.80661011 C308.50214338 288.72553763 309.28256239 290.638193 310.06420898 292.55029297 C311.13021646 296.48003094 310.9254805 299.05895286 310 303 C306.99563998 307.32627843 302.81979895 308.39340035 298 310 C297.97303635 311.79158489 297.95362083 313.58328473 297.9375 315.375 C297.92009766 316.87160156 297.92009766 316.87160156 297.90234375 318.3984375 C297.81993398 320.98432453 297.81993398 320.98432453 299 323 C307.16485186 323.60480384 314.36089097 321.6545696 320.6875 316.25 C323.71316481 312.81353008 325.49661236 309.0503302 327.26953125 304.875 C327.57040649 304.17610657 327.87128174 303.47721313 328.18127441 302.75714111 C331.69170994 294.51311624 334.85809257 286.13970401 338 277.75 C338.61400385 276.11951318 339.22809963 274.48906097 339.84228516 272.85864258 C344.06189618 261.63014687 348.15895401 250.36429772 352 239 C349.33443537 237.66721768 347.16353002 237.7204091 344.1875 237.625 C342.63095703 237.55152344 342.63095703 237.55152344 341.04296875 237.4765625 C336.87594614 238.19335458 335.70852896 239.78108047 333 243 C331.68537515 245.63187722 330.78205605 248.34601882 329.88671875 251.14453125 C329.62744095 251.91431808 329.36816315 252.68410492 329.10102844 253.47721863 C328.28249922 255.91790113 327.48477732 258.36480324 326.6875 260.8125 C326.13352564 262.47636628 325.57820072 264.13978354 325.02148438 265.80273438 C323.6653083 269.8634612 322.3277402 273.92989122 321 278 C320.65743164 276.93040039 320.31486328 275.86080078 319.96191406 274.75878906 C318.68449456 270.78143871 317.39105328 266.80945232 316.09277344 262.83886719 C315.53371682 261.12153336 314.97898184 259.40278628 314.42871094 257.68261719 C313.63575406 255.2064161 312.82725565 252.73575889 312.015625 250.265625 C311.77378479 249.49881409 311.53194458 248.73200317 311.28277588 247.94195557 C309.88930409 243.75803109 308.66392671 240.72500137 305 238 C301.4964365 237.51675794 301.4964365 237.51675794 297.75 237.75 C296.48671875 237.78609375 295.2234375 237.8221875 293.921875 237.859375 C292.95765625 237.90578125 291.9934375 237.9521875 291 238 Z M112 245 C111.58168596 248.71000718 111.58168596 248.71000718 112 252 C114.4178712 252.10826289 116.83087556 252.18739789 119.25 252.25 C119.93191406 252.28351563 120.61382812 252.31703125 121.31640625 252.3515625 C124.78577492 252.41892888 126.62062318 252.29253894 129.40625 250.14453125 C131.87997201 246.81592001 133 244.15683968 133 240 C130.43571485 239.86440325 127.87864784 239.76566812 125.3125 239.6875 C124.2306543 239.6246582 124.2306543 239.6246582 123.12695312 239.56054688 C117.78533551 239.43859213 115.16354245 240.33892266 112 245 Z " fill="#FEFEFE" transform="translate(0,0)"/>
<path d="M0 0 C0 5.94 0 11.88 0 18 C-2.07861328 18.02126953 -2.07861328 18.02126953 -4.19921875 18.04296875 C-6.02867878 18.08987798 -7.85810485 18.13812532 -9.6875 18.1875 C-10.59951172 18.19330078 -11.51152344 18.19910156 -12.45117188 18.20507812 C-16.86123299 18.3494074 -19.35782621 18.57188414 -23.09375 21.0625 C-25.42998005 24.6625922 -25.77473103 27.64653764 -25.8125 31.8125 C-25.9053125 35.3703125 -25.9053125 35.3703125 -26 39 C-18.08 39 -10.16 39 -2 39 C-3.02961758 46.20732304 -4.65762764 49.74376457 -8 56 C-13.94 56 -19.88 56 -26 56 C-26 61.94 -26 67.88 -26 74 C-33.14600956 77.21052603 -39.17751119 78.70256697 -47 79 C-46.42576524 66.28070013 -42.33184786 55.8327761 -35.8046875 45.09375 C-34.24955405 42.42780694 -33.04758673 39.89436334 -32 37 C-42.16482687 46.26793038 -49.55299206 60.27121582 -50.4140625 74.05859375 C-50.49285881 75.8512097 -50.56302932 77.64422355 -50.625 79.4375 C-50.66367188 80.35982422 -50.70234375 81.28214844 -50.7421875 82.23242188 C-50.83568676 84.48809143 -50.9214391 86.74376916 -51 89 C-53.20454455 86.79545545 -53.49937582 85.77638612 -54.25390625 82.82421875 C-54.46853516 81.99599609 -54.68316406 81.16777344 -54.90429688 80.31445312 C-55.12150391 79.44755859 -55.33871094 78.58066406 -55.5625 77.6875 C-55.78357422 76.83220703 -56.00464844 75.97691406 -56.23242188 75.09570312 C-56.83789546 72.73417324 -57.42231519 70.36845329 -58 68 C-58.21011719 67.17371094 -58.42023438 66.34742188 -58.63671875 65.49609375 C-61.11783259 48.44844058 -58.40467916 33.25981689 -48.62890625 19 C-39.76666568 7.75273718 -26.10986768 2.2139761 -12.30078125 0.26171875 C-8.21242426 -0.06244683 -4.10118839 0 0 0 Z " fill="#3AAC51" transform="translate(134,218)"/>
<path d="M0 0 C7.64994293 4.72905563 11.73489741 10.21321426 14.046875 18.90625 C16.06816637 30.15653842 14.56412471 41.31533007 8.12890625 50.890625 C2.57895549 57.29230087 -4.79338498 60.33076868 -13.1328125 61.01171875 C-23.29803632 61.04345202 -30.22587469 60.10687177 -38.44921875 53.7109375 C-45.72803807 46.43211818 -47.87950635 38.44022603 -48.07421875 28.3359375 C-48.01270488 18.91329775 -45.83597337 11.84756471 -39.62109375 4.5703125 C-28.52632757 -6.16364828 -13.35728056 -7.03014767 0 0 Z M-28.26171875 17.7734375 C-31.42932814 22.9416423 -30.87544746 28.85997979 -30.44921875 34.7109375 C-28.6207278 40.10017399 -25.52705464 43.17201956 -20.44921875 45.7109375 C-15.21972601 46.11320617 -11.842373 45.639707 -7.44921875 42.7109375 C-2.68124045 36.52545214 -1.6458961 31.34815988 -2.44921875 23.7109375 C-3.79090975 19.21052253 -5.72929053 16.3654177 -9.19921875 13.2109375 C-16.82834667 9.68980154 -22.66434236 11.4040092 -28.26171875 17.7734375 Z " fill="#169242" transform="translate(399.44921875,240.2890625)"/>
<path d="M0 0 C7.03414817 5.60934808 10.46947575 12.63419784 11.828125 21.45703125 C12.84869156 31.16136594 10.33349592 40.53632982 4.6328125 48.44921875 C-0.74528296 54.43264097 -7.70453446 58.07860966 -15.72265625 58.7578125 C-27.1385998 58.79337619 -35.72001677 57.60154918 -44.171875 49.45703125 C-50.56412705 40.47332566 -52.17895065 30.31711728 -51.171875 19.45703125 C-49.20318608 9.89890391 -43.94632537 3.16887234 -36.171875 -2.54296875 C-25.17592355 -8.74068684 -10.02423962 -7.12153714 0 0 Z M-30.171875 13.45703125 C-34.09996592 18.6944858 -34.83750722 23.99434752 -34.171875 30.45703125 C-32.49541273 35.66288778 -30.33873049 38.91520408 -26.171875 42.45703125 C-22.55256802 43.66346691 -19.97956495 43.77971684 -16.171875 43.45703125 C-11.36696443 41.007469 -8.38258012 38.38860421 -6.171875 33.45703125 C-5.07102055 24.27123165 -5.07102055 24.27123165 -7.984375 15.76953125 C-9.0671875 14.62484375 -9.0671875 14.62484375 -10.171875 13.45703125 C-10.9453125 12.55984375 -10.9453125 12.55984375 -11.734375 11.64453125 C-17.68048743 6.73252533 -24.73042687 9.58523162 -30.171875 13.45703125 Z " fill="#169343" transform="translate(246.171875,242.54296875)"/>
<path d="M0 0 C2.24893954 -0.10823773 4.49937575 -0.18569645 6.75 -0.25 C8.00296875 -0.29640625 9.2559375 -0.3428125 10.546875 -0.390625 C14 0 14 0 16.02734375 1.5078125 C18.67459101 4.85225557 19.74300857 8.23049716 21.015625 12.265625 C21.27631775 13.05902283 21.5370105 13.85242065 21.80560303 14.66986084 C22.63178856 17.1930291 23.44107032 19.72125312 24.25 22.25 C24.80878747 23.96650704 25.36867133 25.68265758 25.9296875 27.3984375 C27.29919289 31.5949349 28.65356917 35.79604523 30 40 C30.33733154 38.96593018 30.67466309 37.93186035 31.0222168 36.86645508 C32.28374734 33.01287284 33.56505898 29.16610909 34.85229492 25.32104492 C35.40552486 23.6594145 35.95345215 21.99600844 36.49584961 20.33081055 C37.27874534 17.93045656 38.08081126 15.53724274 38.88671875 13.14453125 C39.12339767 12.4047554 39.3600766 11.66497955 39.60392761 10.90278625 C41.2135911 6.20307708 43.03976383 3.21483465 47 0 C50.04296875 -0.55859375 50.04296875 -0.55859375 53.1875 -0.4375 C54.75564453 -0.40462891 54.75564453 -0.40462891 56.35546875 -0.37109375 C59 0 59 0 61 2 C55.49211691 17.06410968 49.88203813 32.09119414 44.17703247 47.08175659 C43.52126703 48.80858873 42.86845801 50.53654668 42.21871948 52.26565552 C41.29338593 54.7259 40.35697997 57.18166743 39.41796875 59.63671875 C39.14736633 60.36291412 38.87676392 61.0891095 38.59796143 61.83731079 C35.19644824 70.64558096 30.6195111 78.4775694 22.0546875 83.03515625 C17.26597252 85.05392825 13.16087257 85.27647532 8 85 C6.67770811 82.35541621 6.90322806 80.32238699 6.9375 77.375 C6.94652344 76.37210937 6.95554687 75.36921875 6.96484375 74.3359375 C6.98224609 73.17964844 6.98224609 73.17964844 7 72 C8.03060547 71.65388672 8.03060547 71.65388672 9.08203125 71.30078125 C14.63016134 69.33144307 14.63016134 69.33144307 19.1875 65.75 C21.49647044 57.93502311 17.30642821 49.8803185 14.4921875 42.6953125 C14.04730988 41.53498505 13.60243225 40.37465759 13.14407349 39.1791687 C11.72953003 35.49113316 10.30364431 31.80758626 8.875 28.125 C7.43929354 24.42096847 6.00739116 20.71554199 4.58450317 17.00656128 C3.70043989 14.70224837 2.80923387 12.40066116 1.91036987 10.1020813 C1.51310699 9.06695404 1.11584412 8.03182678 0.70654297 6.96533203 C0.35204071 6.05236359 -0.00246155 5.13939514 -0.3677063 4.19876099 C-1 2 -1 2 0 0 Z " fill="#169242" transform="translate(291,238)"/>
<path d="M0 0 C0.83163162 -0.00191345 1.66326324 -0.0038269 2.52009583 -0.00579834 C4.27080591 -0.00715507 6.02152623 -0.00349447 7.7722168 0.00488281 C10.45839815 0.01563047 13.14391691 0.00494953 15.83007812 -0.0078125 C17.53255356 -0.00649161 19.23502859 -0.00393068 20.9375 0 C21.74269577 -0.00404846 22.54789154 -0.00809692 23.37748718 -0.01226807 C29.03958408 0.03567783 29.03958408 0.03567783 31.26953125 2.265625 C31.53515625 5.015625 31.53515625 5.015625 31.51953125 8.265625 C31.52726562 9.874375 31.52726562 9.874375 31.53515625 11.515625 C31.26953125 14.265625 31.26953125 14.265625 29.26953125 16.265625 C26.28857422 16.49267578 26.28857422 16.49267578 22.51171875 16.4609375 C21.8486673 16.4581076 21.18561584 16.45527771 20.50247192 16.45236206 C18.38297542 16.44115935 16.26390021 16.41605551 14.14453125 16.390625 C12.70833943 16.38059528 11.272141 16.37146941 9.8359375 16.36328125 C6.31350887 16.34292039 2.79199208 16.3037744 -0.73046875 16.265625 C-0.73046875 22.205625 -0.73046875 28.145625 -0.73046875 34.265625 C2.05003906 34.23082031 2.05003906 34.23082031 4.88671875 34.1953125 C7.30598557 34.17655849 9.72525673 34.1583579 12.14453125 34.140625 C13.36785156 34.12386719 14.59117187 34.10710937 15.8515625 34.08984375 C17.01816406 34.08339844 18.18476563 34.07695312 19.38671875 34.0703125 C20.46550293 34.05983887 21.54428711 34.04936523 22.65576172 34.03857422 C25.26953125 34.265625 25.26953125 34.265625 27.26953125 36.265625 C27.53515625 38.54296875 27.53515625 38.54296875 27.51953125 41.203125 C27.52726562 42.51603516 27.52726562 42.51603516 27.53515625 43.85546875 C27.26953125 46.265625 27.26953125 46.265625 25.26953125 49.265625 C22.65576172 49.60620117 22.65576172 49.60620117 19.38671875 49.55859375 C18.33597168 49.55110107 17.28522461 49.5436084 16.20263672 49.53588867 C14.86346191 49.50857666 13.52428711 49.48126465 12.14453125 49.453125 C7.89578125 49.39125 3.64703125 49.329375 -0.73046875 49.265625 C-0.73046875 59.165625 -0.73046875 69.065625 -0.73046875 79.265625 C-3.77987548 80.28209391 -6.03416778 80.46407176 -9.23046875 80.515625 C-10.6690625 80.55429687 -10.6690625 80.55429687 -12.13671875 80.59375 C-14.73046875 80.265625 -14.73046875 80.265625 -16.36732483 79.16305542 C-18.39924359 76.33472277 -18.11924011 74.03425366 -18.13452148 70.57861328 C-18.14138474 69.90345673 -18.14824799 69.22830017 -18.15531921 68.53268433 C-18.1736238 66.30022154 -18.16974414 64.06845925 -18.1640625 61.8359375 C-18.16862331 60.28278372 -18.17392859 58.72963197 -18.1799469 57.17648315 C-18.1888857 53.9198182 -18.18644716 50.66339835 -18.17651367 47.40673828 C-18.16503595 43.2379873 -18.18521229 39.07008487 -18.21443081 34.90144539 C-18.23280123 31.6928878 -18.23249851 28.48453312 -18.22679329 25.27593613 C-18.2266401 23.73937669 -18.23268213 22.20280348 -18.24508476 20.6662941 C-18.26000604 18.51413493 -18.24931121 16.36353694 -18.23217773 14.21142578 C-18.23201157 12.98803497 -18.2318454 11.76464417 -18.23167419 10.50418091 C-17.63576515 6.6536945 -16.4321726 5.01923125 -13.73046875 2.265625 C-9.39179224 -0.28501127 -4.89090405 -0.02477796 0 0 Z " fill="#159241" transform="translate(162.73046875,219.734375)"/>
<path d="M0 0 C4.23160079 0.03632275 6.90742162 0.44654716 10.25 3.25 C11.67238392 6.09476785 11.41424558 8.53872888 11.45532227 11.71923828 C11.46522186 12.38277313 11.47512146 13.04630798 11.48532104 13.72994995 C11.51694916 15.92670097 11.54169854 18.12347363 11.56640625 20.3203125 C11.58697466 21.84203661 11.6079711 23.363755 11.62937927 24.88546753 C11.68461171 28.8934465 11.73401578 32.90147713 11.78222656 36.9095459 C11.83243305 40.99833787 11.88812356 45.08705468 11.94335938 49.17578125 C12.05095528 57.20045732 12.15239704 65.2251962 12.25 73.25 C13.9 73.91 15.55 74.57 17.25 75.25 C17.25 79.21 17.25 83.17 17.25 87.25 C11.82549167 89.96225417 8.31556476 89.91518187 2.5625 88.0625 C-1.93072252 85.60394428 -4.1343496 83.09695121 -5.75 78.25 C-5.84585496 75.77613126 -5.88647085 73.33074073 -5.87939453 70.85693359 C-5.88114685 70.10707687 -5.88289917 69.35722015 -5.88470459 68.5846405 C-5.88910637 66.10588264 -5.88619159 63.62719609 -5.8828125 61.1484375 C-5.88348588 59.42876166 -5.88445619 57.70908591 -5.88571167 55.9894104 C-5.88718625 52.38648573 -5.88504122 48.78358585 -5.88037109 45.18066406 C-5.87466538 40.55220766 -5.87795964 35.92380914 -5.88394356 31.29535484 C-5.88754831 27.74559082 -5.88641113 24.19584063 -5.88381577 20.6460762 C-5.8831467 18.93875751 -5.8839742 17.23143758 -5.88629532 15.52412033 C-5.88882137 13.14413852 -5.88498234 10.76425201 -5.87939453 8.38427734 C-5.88141876 7.67257889 -5.88344299 6.96088043 -5.88552856 6.22761536 C-5.86092325 0.6000729 -5.59068145 0.09924287 0 0 Z " fill="#179241" transform="translate(271.75,211.75)"/>
<path d="M0 0 C4.78952311 2.21054913 7.21637112 5.00591455 9.3046875 9.7265625 C11.07547241 15.51643227 10.78959392 20.94512425 8.25 26.4375 C5.88221496 30.58739888 3.54746053 32.48417982 -1 34 C-6.71592544 34.53923825 -9.55802329 33.63434458 -14 30 C-18.35624716 25.04289116 -18.28384681 20.30516761 -18.21484375 13.94921875 C-17.83997186 8.80325003 -16.21031667 6.09223699 -12.4375 2.6875 C-8.32486234 -0.15971069 -4.94457265 -0.63652148 0 0 Z " fill="#F7FCF9" transform="translate(387,252)"/>
<path d="M0 0 C3.15930721 2.47621376 5.51421441 5.21592881 7.3125 8.8125 C7.79230301 14.94768604 8.23354205 20.75786774 5.6875 26.4375 C1.96321381 30.16178619 -0.81053464 32.53948686 -6.125 33.3125 C-10.70742006 32.66935333 -12.90825056 31.50158133 -16.6875 28.8125 C-20.61559092 23.57504545 -21.35313222 18.27518373 -20.6875 11.8125 C-19.01103773 6.60664347 -16.85435549 3.35432717 -12.6875 -0.1875 C-8.21323668 -1.67892111 -4.36835977 -1.93020548 0 0 Z " fill="#F7FCF9" transform="translate(232.6875,253.1875)"/>
<path d="M0 0 C0 4.62 0 9.24 0 14 C-1.54107422 14.43699219 -1.54107422 14.43699219 -3.11328125 14.8828125 C-19.83562686 19.76471732 -33.35140292 26.81475747 -42.59375 42.26953125 C-44.56529813 46.09762053 -45.8448893 49.85519102 -47 54 C-48.80549778 49.83346667 -46.99322112 46.33006675 -45.4375 42.375 C-45.16010986 41.66005371 -44.88271973 40.94510742 -44.59692383 40.20849609 C-36.90992772 20.94422677 -23.65992336 9.65071039 -5.125 1.28515625 C-2 0 -2 0 0 0 Z " fill="#36A450" transform="translate(122,198)"/>
<path d="M0 0 C0.74056641 0.02255859 1.48113281 0.04511719 2.24414062 0.06835938 C4.05947357 0.1269185 5.87375681 0.21659114 7.6875 0.3125 C7.00958115 3.86265396 6.27688886 7.04542291 4.6875 10.3125 C1.00662647 12.76641569 -1.75605588 12.54052759 -6 12.4375 C-7.0528418 12.42396484 -7.0528418 12.42396484 -8.12695312 12.41015625 C-9.85561525 12.38663704 -11.58410145 12.35076713 -13.3125 12.3125 C-13.72727225 8.08182305 -13.75558211 5.96532512 -11.33203125 2.39453125 C-7.36231839 -0.3426705 -4.68692041 -0.27225186 0 0 Z " fill="#94D096" transform="translate(125.3125,239.6875)"/>
<path d="M0 0 C5.94 0 11.88 0 18 0 C13.72052378 7.2075389 9.03463153 12.3566371 2 17 C1.34 17 0.68 17 0 17 C0 11.39 0 5.78 0 0 Z " fill="#CAEACA" transform="translate(108,274)"/>
</svg>
