<svg xmlns="http://www.w3.org/2000/svg" width="512" height="512" viewBox="0 0 512 512" version="1.1"><path d="M 110.411 202.988 C 104.822 205.780, 97.936 210.195, 94.771 213.016 C 91.661 215.789, 87.140 221.081, 84.725 224.778 C 82.310 228.475, 79.408 233.750, 78.276 236.500 C 77.144 239.250, 75.920 243.075, 75.557 245 C 75.008 247.909, 75.440 247.438, 78.115 242.206 C 79.885 238.744, 83.845 233.233, 86.916 229.959 C 89.987 226.685, 95.144 222.448, 98.375 220.544 C 101.606 218.639, 107.006 216.202, 110.375 215.128 C 113.744 214.055, 117.737 212.903, 119.250 212.569 C 121.929 211.977, 122 211.783, 122 204.981 C 122 201.141, 121.639 198, 121.198 198 C 120.757 198, 115.903 200.245, 110.411 202.988 M 267.750 212.689 C 266.121 213.115, 266 215.834, 266 251.925 C 266 290.577, 266.007 290.715, 268.270 294.102 C 269.518 295.971, 272.106 298.287, 274.020 299.248 C 275.934 300.210, 279.217 300.998, 281.316 300.998 C 283.414 300.999, 286.002 300.534, 287.066 299.965 C 288.634 299.126, 289 297.841, 289 293.184 C 289 287.718, 288.854 287.383, 286 286.306 L 283 285.174 282.985 250.837 C 282.976 231.952, 282.639 216.005, 282.235 215.400 C 281.831 214.795, 280.517 213.782, 279.316 213.150 C 278.114 212.517, 275.414 212.052, 273.316 212.116 C 271.217 212.180, 268.712 212.438, 267.750 212.689 M 120.205 219.149 C 116.743 219.645, 111.001 221.146, 107.445 222.485 C 103.889 223.823, 99.071 226.231, 96.740 227.836 C 94.408 229.441, 90.400 233, 87.834 235.744 C 85.268 238.489, 82.002 243.036, 80.577 245.848 C 79.152 248.661, 77.321 253.783, 76.508 257.231 C 75.695 260.679, 75.023 267.006, 75.015 271.292 C 75.007 275.578, 75.675 282.353, 76.501 286.349 C 77.326 290.345, 79.076 296.738, 80.389 300.557 L 82.778 307.500 82.870 298.500 C 82.920 293.550, 83.641 286.909, 84.470 283.743 C 85.300 280.577, 87.382 275.177, 89.098 271.743 C 90.813 268.309, 93.983 263.137, 96.141 260.250 C 98.299 257.363, 100.500 255, 101.032 255 C 101.565 255, 102 255.632, 102 256.405 C 102 257.178, 99.960 261.116, 97.468 265.155 C 94.975 269.195, 91.881 275.875, 90.592 280 C 89.303 284.125, 87.930 289.705, 87.541 292.399 L 86.833 297.298 91.677 296.725 C 94.342 296.409, 99.104 295.185, 102.261 294.004 L 108 291.856 108 282.928 L 108 274 117.063 274 L 126.125 274 128.918 267.750 C 130.453 264.313, 131.958 260.488, 132.261 259.250 C 132.811 257.008, 132.769 257, 120.406 257 L 108 257 108 250.450 C 108 246.564, 108.614 242.713, 109.510 240.980 C 110.341 239.374, 111.886 237.596, 112.945 237.030 C 114.003 236.463, 119.173 236, 124.434 236 L 134 236 134 227 L 134 218 130.250 218.123 C 128.188 218.191, 123.667 218.653, 120.205 219.149 M 151.014 221.752 C 149.097 222.713, 146.966 224.625, 146.279 226 C 145.353 227.853, 145.026 237.481, 145.015 263.215 C 145.001 296.521, 145.078 297.972, 146.934 298.965 C 147.998 299.534, 151.261 299.993, 154.184 299.985 C 157.108 299.976, 160.114 299.581, 160.864 299.105 C 161.901 298.448, 162.260 294.801, 162.364 283.871 L 162.500 269.500 175 269.230 C 185.306 269.008, 187.719 268.667, 188.750 267.289 C 189.438 266.370, 190 263.509, 190 260.931 C 190 258.281, 189.429 255.771, 188.686 255.155 C 187.939 254.535, 182.011 253.943, 174.936 253.782 L 162.500 253.500 162.211 244.750 L 161.922 236 176.761 236 C 186.969 236, 191.974 235.626, 192.800 234.800 C 193.460 234.140, 194 231.080, 194 228 C 194 224.920, 193.460 221.860, 192.800 221.200 C 191.953 220.353, 186.146 220, 173.050 220.002 C 157.388 220.003, 153.957 220.275, 151.014 221.752 M 219.344 236.991 C 217.058 237.471, 213.458 238.756, 211.344 239.847 C 209.230 240.938, 205.835 243.556, 203.799 245.665 C 201.764 247.774, 199.064 251.750, 197.799 254.500 C 195.872 258.690, 195.507 261.119, 195.546 269.500 C 195.579 276.624, 196.078 280.604, 197.282 283.338 C 198.211 285.449, 200.295 288.847, 201.912 290.889 C 203.530 292.931, 207.248 295.929, 210.176 297.551 C 215.123 300.291, 216.244 300.500, 226 300.500 C 235.444 300.500, 237.003 300.233, 241.500 297.843 C 244.250 296.382, 247.712 293.907, 249.193 292.343 C 250.675 290.779, 253.128 286.800, 254.646 283.500 C 256.974 278.436, 257.403 276.174, 257.396 269 C 257.388 261.860, 256.943 259.520, 254.612 254.374 C 253.087 251.005, 250.187 246.639, 248.169 244.673 C 246.151 242.707, 242.475 240.209, 240 239.121 C 237.525 238.033, 232.800 236.912, 229.500 236.631 C 226.200 236.349, 221.630 236.511, 219.344 236.991 M 374.316 237.373 C 371.464 238.094, 367.864 239.488, 366.316 240.471 C 364.767 241.455, 362.221 243.438, 360.657 244.879 C 359.093 246.321, 356.747 249.591, 355.443 252.146 C 354.138 254.702, 352.613 259.664, 352.052 263.174 C 351.388 267.331, 351.364 271.591, 351.982 275.392 C 352.505 278.602, 353.885 283.197, 355.050 285.603 C 356.215 288.009, 359.191 291.758, 361.663 293.935 C 364.136 296.111, 368.423 298.644, 371.190 299.563 C 374.894 300.793, 378.500 301.119, 384.860 300.796 C 391.123 300.479, 394.654 299.761, 397.694 298.188 C 400 296.994, 403.455 294.403, 405.370 292.431 C 407.285 290.459, 409.881 286.742, 411.138 284.172 C 413.067 280.230, 413.430 277.859, 413.462 269 C 413.496 259.473, 413.240 257.970, 410.689 252.776 C 409.143 249.627, 406.042 245.480, 403.798 243.559 C 401.554 241.639, 397.644 239.387, 395.109 238.555 C 392.574 237.723, 388.025 236.822, 385 236.552 C 381.975 236.282, 377.167 236.651, 374.316 237.373 M 290.591 238.852 C 290.302 239.321, 294.247 250.684, 299.360 264.102 C 304.472 277.521, 309.481 290.818, 310.490 293.651 C 312.077 298.110, 312.147 299.231, 311.009 301.979 C 310.285 303.726, 308.626 305.854, 307.322 306.709 C 306.017 307.564, 303.499 308.558, 301.725 308.918 C 298.579 309.558, 298.493 309.718, 298.195 315.444 C 297.987 319.463, 298.302 321.575, 299.195 322.142 C 299.913 322.597, 301.431 322.976, 302.568 322.985 C 303.706 322.993, 307.011 322.295, 309.913 321.433 C 313.153 320.471, 316.805 318.377, 319.375 316.008 C 321.677 313.887, 324.780 309.529, 326.270 306.325 C 327.761 303.121, 334.156 286.839, 340.482 270.142 C 346.808 253.445, 351.736 239.382, 351.433 238.892 C 351.130 238.401, 347.871 238.007, 344.191 238.015 C 340.511 238.024, 337.005 238.361, 336.400 238.765 C 335.795 239.169, 334.771 240.504, 334.125 241.731 C 333.479 242.958, 330.314 251.844, 327.091 261.476 L 321.233 278.991 314.866 260.249 C 311.365 249.941, 307.712 240.718, 306.750 239.753 C 305.418 238.419, 303.342 238, 298.059 238 C 294.241 238, 290.881 238.384, 290.591 238.852 M 121.577 243.750 C 121.821 245.262, 122.250 247.512, 122.529 248.750 C 122.881 250.304, 123.768 251, 125.397 251 C 126.694 251, 128.251 250.403, 128.856 249.673 C 129.462 248.944, 130.648 246.694, 131.492 244.673 L 133.027 241 127.080 241 C 121.151 241, 121.134 241.008, 121.577 243.750 M 220.678 253.484 C 219.126 254.294, 217.012 255.978, 215.980 257.228 C 214.948 258.478, 213.636 261.637, 213.063 264.250 C 212.333 267.578, 212.343 270.499, 213.095 274.008 C 213.782 277.209, 215.216 280.062, 217.071 281.917 C 218.841 283.687, 221.537 285.084, 223.978 285.496 C 226.918 285.993, 228.966 285.684, 231.677 284.336 C 233.709 283.326, 236.286 281.248, 237.405 279.718 C 238.853 277.737, 239.534 275.001, 239.772 270.218 C 240.022 265.197, 239.651 262.621, 238.303 260.020 C 237.311 258.106, 234.971 255.518, 233.102 254.270 C 231.233 253.021, 228.308 252.003, 226.602 252.006 C 224.896 252.010, 222.230 252.675, 220.678 253.484 M 377.396 253.377 C 375.689 254.149, 373.263 256.226, 372.005 257.992 C 370.340 260.332, 369.604 263.011, 369.296 267.852 C 368.973 272.951, 369.297 275.299, 370.687 277.929 C 371.684 279.815, 373.664 282.210, 375.087 283.252 C 376.509 284.294, 379.434 285.362, 381.587 285.626 C 384.199 285.945, 386.652 285.506, 388.966 284.302 C 390.872 283.311, 393.347 280.925, 394.466 279 C 395.958 276.432, 396.491 273.768, 396.466 269 C 396.445 264.794, 395.819 261.356, 394.695 259.259 C 393.740 257.477, 391.860 255.299, 390.517 254.419 C 389.175 253.540, 386.372 252.630, 384.288 252.397 C 382.205 252.164, 379.103 252.605, 377.396 253.377" stroke="none" fill="#1e9745" fill-rule="evenodd"/><path d="M 0 256.002 L 0 512.004 256.250 511.752 L 512.500 511.500 512.752 255.750 L 513.004 0 256.502 0 L 0 0 0 256.002 M 0.492 256.500 C 0.492 397.300, 0.608 454.751, 0.750 384.170 C 0.892 313.588, 0.892 198.388, 0.750 128.170 C 0.608 57.951, 0.492 115.700, 0.492 256.500 M 110.411 202.988 C 104.822 205.780, 97.936 210.195, 94.771 213.016 C 91.661 215.789, 87.140 221.081, 84.725 224.778 C 82.310 228.475, 79.408 233.750, 78.276 236.500 C 77.144 239.250, 75.920 243.075, 75.557 245 C 75.008 247.909, 75.440 247.438, 78.115 242.206 C 79.885 238.744, 83.845 233.233, 86.916 229.959 C 89.987 226.685, 95.144 222.448, 98.375 220.544 C 101.606 218.639, 107.006 216.202, 110.375 215.128 C 113.744 214.055, 117.737 212.903, 119.250 212.569 C 121.929 211.977, 122 211.783, 122 204.981 C 122 201.141, 121.639 198, 121.198 198 C 120.757 198, 115.903 200.245, 110.411 202.988 M 267.750 212.689 C 266.121 213.115, 266 215.834, 266 251.925 C 266 290.577, 266.007 290.715, 268.270 294.102 C 269.518 295.971, 272.106 298.287, 274.020 299.248 C 275.934 300.210, 279.217 300.998, 281.316 300.998 C 283.414 300.999, 286.002 300.534, 287.066 299.965 C 288.634 299.126, 289 297.841, 289 293.184 C 289 287.718, 288.854 287.383, 286 286.306 L 283 285.174 282.985 250.837 C 282.976 231.952, 282.639 216.005, 282.235 215.400 C 281.831 214.795, 280.517 213.782, 279.316 213.150 C 278.114 212.517, 275.414 212.052, 273.316 212.116 C 271.217 212.180, 268.712 212.438, 267.750 212.689 M 120.205 219.149 C 116.743 219.645, 111.001 221.146, 107.445 222.485 C 103.889 223.823, 99.071 226.231, 96.740 227.836 C 94.408 229.441, 90.400 233, 87.834 235.744 C 85.268 238.489, 82.002 243.036, 80.577 245.848 C 79.152 248.661, 77.321 253.783, 76.508 257.231 C 75.695 260.679, 75.023 267.006, 75.015 271.292 C 75.007 275.578, 75.675 282.353, 76.501 286.349 C 77.326 290.345, 79.076 296.738, 80.389 300.557 L 82.778 307.500 82.870 298.500 C 82.920 293.550, 83.641 286.909, 84.470 283.743 C 85.300 280.577, 87.382 275.177, 89.098 271.743 C 90.813 268.309, 93.983 263.137, 96.141 260.250 C 98.299 257.363, 100.500 255, 101.032 255 C 101.565 255, 102 255.632, 102 256.405 C 102 257.178, 99.960 261.116, 97.468 265.155 C 94.975 269.195, 91.881 275.875, 90.592 280 C 89.303 284.125, 87.930 289.705, 87.541 292.399 L 86.833 297.298 91.677 296.725 C 94.342 296.409, 99.104 295.185, 102.261 294.004 L 108 291.856 108 282.928 L 108 274 117.063 274 L 126.125 274 128.918 267.750 C 130.453 264.313, 131.958 260.488, 132.261 259.250 C 132.811 257.008, 132.769 257, 120.406 257 L 108 257 108 250.450 C 108 246.564, 108.614 242.713, 109.510 240.980 C 110.341 239.374, 111.886 237.596, 112.945 237.030 C 114.003 236.463, 119.173 236, 124.434 236 L 134 236 134 227 L 134 218 130.250 218.123 C 128.188 218.191, 123.667 218.653, 120.205 219.149 M 151.014 221.752 C 149.097 222.713, 146.966 224.625, 146.279 226 C 145.353 227.853, 145.026 237.481, 145.015 263.215 C 145.001 296.521, 145.078 297.972, 146.934 298.965 C 147.998 299.534, 151.261 299.993, 154.184 299.985 C 157.108 299.976, 160.114 299.581, 160.864 299.105 C 161.901 298.448, 162.260 294.801, 162.364 283.871 L 162.500 269.500 175 269.230 C 185.306 269.008, 187.719 268.667, 188.750 267.289 C 189.438 266.370, 190 263.509, 190 260.931 C 190 258.281, 189.429 255.771, 188.686 255.155 C 187.939 254.535, 182.011 253.943, 174.936 253.782 L 162.500 253.500 162.211 244.750 L 161.922 236 176.761 236 C 186.969 236, 191.974 235.626, 192.800 234.800 C 193.460 234.140, 194 231.080, 194 228 C 194 224.920, 193.460 221.860, 192.800 221.200 C 191.953 220.353, 186.146 220, 173.050 220.002 C 157.388 220.003, 153.957 220.275, 151.014 221.752 M 219.344 236.991 C 217.058 237.471, 213.458 238.756, 211.344 239.847 C 209.230 240.938, 205.835 243.556, 203.799 245.665 C 201.764 247.774, 199.064 251.750, 197.799 254.500 C 195.872 258.690, 195.507 261.119, 195.546 269.500 C 195.579 276.624, 196.078 280.604, 197.282 283.338 C 198.211 285.449, 200.295 288.847, 201.912 290.889 C 203.530 292.931, 207.248 295.929, 210.176 297.551 C 215.123 300.291, 216.244 300.500, 226 300.500 C 235.444 300.500, 237.003 300.233, 241.500 297.843 C 244.250 296.382, 247.712 293.907, 249.193 292.343 C 250.675 290.779, 253.128 286.800, 254.646 283.500 C 256.974 278.436, 257.403 276.174, 257.396 269 C 257.388 261.860, 256.943 259.520, 254.612 254.374 C 253.087 251.005, 250.187 246.639, 248.169 244.673 C 246.151 242.707, 242.475 240.209, 240 239.121 C 237.525 238.033, 232.800 236.912, 229.500 236.631 C 226.200 236.349, 221.630 236.511, 219.344 236.991 M 374.316 237.373 C 371.464 238.094, 367.864 239.488, 366.316 240.471 C 364.767 241.455, 362.221 243.438, 360.657 244.879 C 359.093 246.321, 356.747 249.591, 355.443 252.146 C 354.138 254.702, 352.613 259.664, 352.052 263.174 C 351.388 267.331, 351.364 271.591, 351.982 275.392 C 352.505 278.602, 353.885 283.197, 355.050 285.603 C 356.215 288.009, 359.191 291.758, 361.663 293.935 C 364.136 296.111, 368.423 298.644, 371.190 299.563 C 374.894 300.793, 378.500 301.119, 384.860 300.796 C 391.123 300.479, 394.654 299.761, 397.694 298.188 C 400 296.994, 403.455 294.403, 405.370 292.431 C 407.285 290.459, 409.881 286.742, 411.138 284.172 C 413.067 280.230, 413.430 277.859, 413.462 269 C 413.496 259.473, 413.240 257.970, 410.689 252.776 C 409.143 249.627, 406.042 245.480, 403.798 243.559 C 401.554 241.639, 397.644 239.387, 395.109 238.555 C 392.574 237.723, 388.025 236.822, 385 236.552 C 381.975 236.282, 377.167 236.651, 374.316 237.373 M 290.591 238.852 C 290.302 239.321, 294.247 250.684, 299.360 264.102 C 304.472 277.521, 309.481 290.818, 310.490 293.651 C 312.077 298.110, 312.147 299.231, 311.009 301.979 C 310.285 303.726, 308.626 305.854, 307.322 306.709 C 306.017 307.564, 303.499 308.558, 301.725 308.918 C 298.579 309.558, 298.493 309.718, 298.195 315.444 C 297.987 319.463, 298.302 321.575, 299.195 322.142 C 299.913 322.597, 301.431 322.976, 302.568 322.985 C 303.706 322.993, 307.011 322.295, 309.913 321.433 C 313.153 320.471, 316.805 318.377, 319.375 316.008 C 321.677 313.887, 324.780 309.529, 326.270 306.325 C 327.761 303.121, 334.156 286.839, 340.482 270.142 C 346.808 253.445, 351.736 239.382, 351.433 238.892 C 351.130 238.401, 347.871 238.007, 344.191 238.015 C 340.511 238.024, 337.005 238.361, 336.400 238.765 C 335.795 239.169, 334.771 240.504, 334.125 241.731 C 333.479 242.958, 330.314 251.844, 327.091 261.476 L 321.233 278.991 314.866 260.249 C 311.365 249.941, 307.712 240.718, 306.750 239.753 C 305.418 238.419, 303.342 238, 298.059 238 C 294.241 238, 290.881 238.384, 290.591 238.852 M 121.577 243.750 C 121.821 245.262, 122.250 247.512, 122.529 248.750 C 122.881 250.304, 123.768 251, 125.397 251 C 126.694 251, 128.251 250.403, 128.856 249.673 C 129.462 248.944, 130.648 246.694, 131.492 244.673 L 133.027 241 127.080 241 C 121.151 241, 121.134 241.008, 121.577 243.750 M 220.678 253.484 C 219.126 254.294, 217.012 255.978, 215.980 257.228 C 214.948 258.478, 213.636 261.637, 213.063 264.250 C 212.333 267.578, 212.343 270.499, 213.095 274.008 C 213.782 277.209, 215.216 280.062, 217.071 281.917 C 218.841 283.687, 221.537 285.084, 223.978 285.496 C 226.918 285.993, 228.966 285.684, 231.677 284.336 C 233.709 283.326, 236.286 281.248, 237.405 279.718 C 238.853 277.737, 239.534 275.001, 239.772 270.218 C 240.022 265.197, 239.651 262.621, 238.303 260.020 C 237.311 258.106, 234.971 255.518, 233.102 254.270 C 231.233 253.021, 228.308 252.003, 226.602 252.006 C 224.896 252.010, 222.230 252.675, 220.678 253.484 M 377.396 253.377 C 375.689 254.149, 373.263 256.226, 372.005 257.992 C 370.340 260.332, 369.604 263.011, 369.296 267.852 C 368.973 272.951, 369.297 275.299, 370.687 277.929 C 371.684 279.815, 373.664 282.210, 375.087 283.252 C 376.509 284.294, 379.434 285.362, 381.587 285.626 C 384.199 285.945, 386.652 285.506, 388.966 284.302 C 390.872 283.311, 393.347 280.925, 394.466 279 C 395.958 276.432, 396.491 273.768, 396.466 269 C 396.445 264.794, 395.819 261.356, 394.695 259.259 C 393.740 257.477, 391.860 255.299, 390.517 254.419 C 389.175 253.540, 386.372 252.630, 384.288 252.397 C 382.205 252.164, 379.103 252.605, 377.396 253.377" stroke="none" fill="#fbfbfb" fill-rule="evenodd"/></svg>